<svg width="110.32mm" height="65.463mm" version="1.1" viewBox="0 0 110.32 65.463" xmlns="http://www.w3.org/2000/svg">
 <defs>
  <clipPath id="clipPath913">
   <path d="m2101.3 3410.5s-12.9-20.42-83.13-20.13c-23.42 0.1-44.22-2.12-62.26-5.36 27.6-13.25 54.21-28.48 79.53-45.65 25.99 10.94 49.69 32.46 65.86 71.14zm-66.26 102.92s-11.75-24.27-89.84-32.84c-72.52-7.97-120.84-32.93-141.27-45.53 33.47-6.35 66.16-15.42 97.81-27.09 52.84 2.05 109.8 24.87 133.3 105.46zm-967.64-870.06c51.27-195.96 193.75-369.04 368.2-439.42 91.34-36.9 209.96-7.48 312.3 3.4-283.37-20.57-550.09 162.68-624.6 447.45-84.05 321.22 108.19 649.8 429.45 733.87 288.83 75.58 583.46-72.27 701.09-336.34-114.61 282.35-423.53 442.78-726.27 363.56-329.09-86.12-546.28-443.43-460.17-772.52zm8.57 671.57s16.36-31.5-5.39-110.94c-27.54-100.08-4.28-178.58-4.28-178.58s153.99 177.24 9.67 289.52zm847.93 34.64s10.71-65.48 75.71-118.9c51.55-42.39 45.01-71.25 45.01-71.25 43.07 141.81-120.72 190.15-120.72 190.15zm-176.87 42.87s25.33-69.66 107.71-114.79c65.34-35.89 64.13-68.9 64.13-68.9 17.95 164.56-171.84 183.69-171.84 183.69zm-198.48-16.11s50.39-59.64 148.36-74.25c77.72-11.63 88.55-44.76 88.55-44.76-42.28 169.31-236.91 119.01-236.91 119.01zm-161.98-70.44s66.43-47.84 169.69-37.8c82.03 7.95 101.45-22.97 101.45-22.97-86.01 161.39-271.14 60.77-271.14 60.77zm-135.19-126.25s77.59-26.12 173.29 13.94c76 31.77 103.72 7.95 103.72 7.95-129.78 128.84-277.01-21.89-277.01-21.89zm-89.04-164.34s81.86 1.86 158.25 72.11c60.63 55.74 94.77 42.78 94.77 42.78-165.92 76.96-253.02-114.89-253.02-114.89zm81.86 464.93s8.39-34.49-31.87-106.38c-50.66-90.58-46.88-172.38-46.88-172.38s191.98 135.16 78.75 278.76zm644.74 91.46s-9.81-26.55-90.44-43.35c-101.63-21.2-153.71-70.63-153.71-70.63s210.1-65.69 244.15 113.98zm-195.44 37.16s-12.82-33.1-86.78-69.29c-93.25-45.6-136.71-115-136.71-115s234.76 1.78 223.49 184.29zm-402.14-277.07s22.46 78.75 99.36 148.48c61.01 55.33 64.1 90.71 64.1 90.71 61.62-172.19-163.46-239.19-163.46-239.19z"/>
  </clipPath>
  <radialGradient id="radialGradient919" cx="0" cy="0" r="1" gradientTransform="matrix(-403.07 -839.57 738.96 -457.95 10046 7135.3)" gradientUnits="userSpaceOnUse">
   <stop stop-color="#dfe50b" offset="0"/>
   <stop stop-color="#288f3e" offset="1"/>
  </radialGradient>
  <clipPath id="clipPath929">
   <path d="m1306 2827.7s69.76-18.68 151.77 21.92c65.16 32.18 90.86 12.75 90.86 12.75-121.4 106.19-242.63-34.67-242.63-34.67zm111.97 118.66s61.14-38.41 151.51-23.85c71.73 11.57 90.56-14.57 90.56-14.57-84.69 137.28-242.07 38.42-242.07 38.42zm777.51-174.93c-116.62 242.14-397.43 366.15-659.47 279.58-284.92-94.13-456.19-420.71-362.04-705.59 16.99-51.47 45.61-111.19 75.6-156.2 21.18-4.93 40.81 1.39 66.99-1.25-40.52 49.2-72.88 106.49-94.06 170.62-91.89 278.08 59.07 577.97 337.14 669.85 250.03 82.61 517.6-31.13 635.84-257.01zm-958.7-93.36s71.97 6.19 135.29 72.27c50.23 52.47 81.02 42.94 81.02 42.94-150.27 58.53-216.31-115.21-216.31-115.21zm319.87 339.29s47.67-49.71 134.71-57.09c69.04-5.92 80.41-34.47 80.41-34.47-46.6 146.66-215.12 91.56-215.12 91.56zm448.7-163.32c30.03 127.22-116.81 160.66-116.81 160.66s13.07-57.05 73.23-100.42c47.77-34.48 43.58-60.24 43.58-60.24zm-274.86 188.54s26.15-59.89 101.14-95.06c59.54-27.92 60.29-57.08 60.29-57.08 6.62 145.87-161.43 152.14-161.43 152.14zm-578.76-360.94s125.67 164.58-7.65 255.37c0 0 16.19-26.82 1.38-97.92-18.6-89.65 6.27-157.45 6.27-157.45zm131.27 410.25s9.25-29.92-22.13-95.43c-39.56-82.55-31.69-154.33-31.69-154.33s161.46 129.65 53.82 249.76zm180.29 91.56s-0.71-31.31-51.36-83.41c-63.8-65.63-79.15-136.2-79.15-136.2s194.33 71.47 130.51 219.61zm208 46.65s-9.41-29.86-72.54-65.85c-79.51-45.32-113.92-108.83-113.92-108.83s206.59 14.64 186.46 174.68zm305.95-64.99s-9.02-22.04-77.26-33.91c-63.38-11.05-104.54-35.7-121.82-47.95 29.81-3.72 59.1-9.91 87.62-18.39 46.36 4.74 95.26 28.02 111.46 100.25zm-131.84 43.15s-7.19-23.91-77.23-43.21c-88.25-24.29-131.35-70.71-131.35-70.71s188.58-46.13 208.58 113.92zm141.89-196.34c-23.24 13.71-47.54 25.63-72.54 35.74 15.67 3.86 33.86 6.97 54.44 8.2 61.85 3.65 72.09 22.34 72.09 22.34-12.11-34.96-31.74-55.22-53.99-66.28z"/>
  </clipPath>
  <radialGradient id="radialGradient935" cx="0" cy="0" r="1" gradientTransform="matrix(-571.26 -799.32 681.68 -669.85 10128 6916.8)" gradientUnits="userSpaceOnUse">
   <stop stop-color="#dfe50b" offset="0"/>
   <stop stop-color="#288f3e" offset="1"/>
  </radialGradient>
  <radialGradient id="radialGradient991" cx="0" cy="0" r="1" gradientTransform="matrix(315.69 0 0 -315.69 9233.9 4475.5)" gradientUnits="userSpaceOnUse">
   <stop stop-color="#68bf30" offset="0"/>
   <stop stop-color="#288f3e" offset="1"/>
  </radialGradient>
  <radialGradient id="radialGradient999" cx="0" cy="0" r="1" gradientTransform="matrix(216.81 0 0 -216.81 9394.5 4389.8)" gradientUnits="userSpaceOnUse">
   <stop stop-color="#68bf30" offset="0"/>
   <stop stop-color="#288f3e" offset="1"/>
  </radialGradient>
  <radialGradient id="radialGradient1007" cx="0" cy="0" r="1" gradientTransform="matrix(179.59 0 0 -179.59 9702.8 4330.2)" gradientUnits="userSpaceOnUse">
   <stop stop-color="#68bf30" offset="0"/>
   <stop stop-color="#288f3e" offset="1"/>
  </radialGradient>
  <radialGradient id="radialGradient1015" cx="0" cy="0" r="1" gradientTransform="matrix(371.47 0 0 -371.47 9195.9 4558)" gradientUnits="userSpaceOnUse">
   <stop stop-color="#68bf30" offset="0"/>
   <stop stop-color="#288f3e" offset="1"/>
  </radialGradient>
  <clipPath id="clipPath1025">
   <path d="m3812.6 2241.7c-326.96-55.79-562.93-159.51-976.9-23.97-135.95 44.51-278.18 69.43-419.97 89.38-120.12 16.91-243.65 16.91-364.64 14.1-251.36-5.76-821.7-135.3-821.7-135.3 370.42-36.52 1177-62.83 1397-79.59 198.75-15.15 437.69-20.86 637.42-24.38 243.45-4.28 494.28 125.44 548.77 159.76z"/>
  </clipPath>
  <radialGradient id="radialGradient1031" cx="0" cy="0" r="1" gradientTransform="matrix(688.74 -669.34 -669.34 -688.74 8559.8 4557.2)" gradientUnits="userSpaceOnUse">
   <stop stop-color="#68bf30" offset="0"/>
   <stop stop-color="#288f3e" offset="1"/>
  </radialGradient>
 </defs>
 <g transform="translate(-43.002 -61.636)">
  <g transform="matrix(.035278 0 0 -.035278 10.08 174.37)">
   <g fill="#5ab834">
    <path d="m3603.2 1431.9h-2206.4v233.87h2206.4v-233.87"/>
    <path d="m1371.1 1391.2h-371.8l91.008 102.06-91.008 90.33h371.8v-192.39"/>
    <path d="m3628.8 1391.2h371.83l-90.97 102.06 90.97 90.33h-371.83v-192.39"/>
   </g>
   <g transform="matrix(.78224 0 0 .6885 293.27 682.26)" stroke-width="1.3626">
    <g clip-path="url(#clipPath913)" stroke-width="1.3626">
     <path d="m2101.3 3410.5s-12.9-20.42-83.13-20.13c-23.42 0.1-44.22-2.12-62.26-5.36 27.6-13.25 54.21-28.48 79.53-45.65 25.99 10.94 49.69 32.46 65.86 71.14zm-66.26 102.92s-11.75-24.27-89.84-32.84c-72.52-7.97-120.84-32.93-141.27-45.53 33.47-6.35 66.16-15.42 97.81-27.09 52.84 2.05 109.8 24.87 133.3 105.46zm-967.64-870.06c51.27-195.96 193.75-369.04 368.2-439.42 91.34-36.9 209.96-7.48 312.3 3.4-283.37-20.57-550.09 162.68-624.6 447.45-84.05 321.22 108.19 649.8 429.45 733.87 288.83 75.58 583.46-72.27 701.09-336.34-114.61 282.35-423.53 442.78-726.27 363.56-329.09-86.12-546.28-443.43-460.17-772.52zm8.57 671.57s16.36-31.5-5.39-110.94c-27.54-100.08-4.28-178.58-4.28-178.58s153.99 177.24 9.67 289.52zm847.93 34.64s10.71-65.48 75.71-118.9c51.55-42.39 45.01-71.25 45.01-71.25 43.07 141.81-120.72 190.15-120.72 190.15zm-176.87 42.87s25.33-69.66 107.71-114.79c65.34-35.89 64.13-68.9 64.13-68.9 17.95 164.56-171.84 183.69-171.84 183.69zm-198.48-16.11s50.39-59.64 148.36-74.25c77.72-11.63 88.55-44.76 88.55-44.76-42.28 169.31-236.91 119.01-236.91 119.01zm-161.98-70.44s66.43-47.84 169.69-37.8c82.03 7.95 101.45-22.97 101.45-22.97-86.01 161.39-271.14 60.77-271.14 60.77zm-135.19-126.25s77.59-26.12 173.29 13.94c76 31.77 103.72 7.95 103.72 7.95-129.78 128.84-277.01-21.89-277.01-21.89zm-89.04-164.34s81.86 1.86 158.25 72.11c60.63 55.74 94.77 42.78 94.77 42.78-165.92 76.96-253.02-114.89-253.02-114.89zm81.86 464.93s8.39-34.49-31.87-106.38c-50.66-90.58-46.88-172.38-46.88-172.38s191.98 135.16 78.75 278.76zm644.74 91.46s-9.81-26.55-90.44-43.35c-101.63-21.2-153.71-70.63-153.71-70.63s210.1-65.69 244.15 113.98zm-195.44 37.16s-12.82-33.1-86.78-69.29c-93.25-45.6-136.71-115-136.71-115s234.76 1.78 223.49 184.29zm-402.14-277.07s22.46 78.75 99.36 148.48c61.01 55.33 64.1 90.71 64.1 90.71 61.62-172.19-163.46-239.19-163.46-239.19" fill="url(#radialGradient919)"/>
    </g>
   </g>
   <g transform="matrix(.78224 0 0 .66711 293.27 729.18)" stroke-width="1.3843">
    <g clip-path="url(#clipPath929)" stroke-width="1.3843">
     <path d="m1306 2827.7s69.76-18.68 151.77 21.92c65.16 32.18 90.86 12.75 90.86 12.75-121.4 106.19-242.63-34.67-242.63-34.67zm111.97 118.66s61.14-38.41 151.51-23.85c71.73 11.57 90.56-14.57 90.56-14.57-84.69 137.28-242.07 38.42-242.07 38.42zm777.51-174.93c-116.62 242.14-397.43 366.15-659.47 279.58-284.92-94.13-456.19-420.71-362.04-705.59 16.99-51.47 45.61-111.19 75.6-156.2 21.18-4.93 40.81 1.39 66.99-1.25-40.52 49.2-72.88 106.49-94.06 170.62-91.89 278.08 59.07 577.97 337.14 669.85 250.03 82.61 517.6-31.13 635.84-257.01zm-958.7-93.36s71.97 6.19 135.29 72.27c50.23 52.47 81.02 42.94 81.02 42.94-150.27 58.53-216.31-115.21-216.31-115.21zm319.87 339.29s47.67-49.71 134.71-57.09c69.04-5.92 80.41-34.47 80.41-34.47-46.6 146.66-215.12 91.56-215.12 91.56zm448.7-163.32c30.03 127.22-116.81 160.66-116.81 160.66s13.07-57.05 73.23-100.42c47.77-34.48 43.58-60.24 43.58-60.24zm-274.86 188.54s26.15-59.89 101.14-95.06c59.54-27.92 60.29-57.08 60.29-57.08 6.62 145.87-161.43 152.14-161.43 152.14zm-578.76-360.94s125.67 164.58-7.65 255.37c0 0 16.19-26.82 1.38-97.92-18.6-89.65 6.27-157.45 6.27-157.45zm131.27 410.25s9.25-29.92-22.13-95.43c-39.56-82.55-31.69-154.33-31.69-154.33s161.46 129.65 53.82 249.76zm180.29 91.56s-0.71-31.31-51.36-83.41c-63.8-65.63-79.15-136.2-79.15-136.2s194.33 71.47 130.51 219.61zm208 46.65s-9.41-29.86-72.54-65.85c-79.51-45.32-113.92-108.83-113.92-108.83s206.59 14.64 186.46 174.68zm305.95-64.99s-9.02-22.04-77.26-33.91c-63.38-11.05-104.54-35.7-121.82-47.95 29.81-3.72 59.1-9.91 87.62-18.39 46.36 4.74 95.26 28.02 111.46 100.25zm-131.84 43.15s-7.19-23.91-77.23-43.21c-88.25-24.29-131.35-70.71-131.35-70.71s188.58-46.13 208.58 113.92zm141.89-196.34c-23.24 13.71-47.54 25.63-72.54 35.74 15.67 3.86 33.86 6.97 54.44 8.2 61.85 3.65 72.09 22.34 72.09 22.34-12.11-34.96-31.74-55.22-53.99-66.28" fill="url(#radialGradient935)"/>
    </g>
   </g>
   <g>
    <path d="m2332.5 2414.8c0.657-2.3859 1.1342-4.8343 1.8852-7.2201 0 2.3858-0.8136 4.8342-1.8852 7.2201" fill="#221e1a" fill-rule="evenodd"/>
    <path d="m2333.4 2316.2h0.2112c-0.078 0.1878-0.1173 0.3364-0.2112 0.5085v-0.5085" fill="#c6c5c2" fill-rule="evenodd"/>
    <path d="m1984.8 2493.3c0.8996 0.2034 1.8226 0.4303 2.7378 0.6571l-2.3936 0.704-0.3442-1.3611" fill="#4a2819"/>
    <path d="m1987.2 2492.6c0.8995 0.219 1.8226 0.4459 2.7456 0.6649l-2.4093 0.704-0.3363-1.3689" fill="#f8bf09"/>
   </g>
   <g fill="#4a2819" fill-rule="evenodd">
    <path d="m1557.6 2338.7c97.139-8.9175 84.326 141.01-7.0714 117.55-62.235-15.981-55.672-111.77 7.0714-117.55zm16.13 205.72c1.3455-2.7457 3.8095-4.2007 3.4027-9.0036 10.028-5.4757 14.683 7.8067 23.201 8.5499 8.3308 0.7509 19.016-7.2279 18.664-17.037 7.3061-11.147 14.417 0.8057 23.937-0.6884 14.839-2.2685 10.764-20.346 19.752-30.21 5.2801 0.4615 10.552 0.8839 15.817 1.322 13.783-9.426 2.8865-26.69 11.069-37.571 7.1027 1.6349 10.443-1.1499 14.831-2.7378 9.2148-16.45-6.3127-23.616-2.3155-36.03 3.4732-4.0989 10.232-4.3101 12.727-9.559 0.1251-11.147-0.2738-21.856-11.327-23.522-7.6424-8.6281 5.5852-13.627 7.0167-20.636 1.9869-9.6528-3.5748-19.556-16.818-21.308-2.6362-2.6753-2.8943-7.3374-5.8199-9.7702 11.71-6.9619 3.6296-25.83-8.2526-28.552-6.5786-1.4863-12.696 1.846-16.802-5.3506 2.6283-6.2109 2.4484-13.329 0.2034-18.578-14.221-10.091-23.256-0.2033-35.271-6.8993 6.1562-20.143-23.616-23.428-30.859-11.828-12.876 0.6806-11.428-10.756-18.703-14.831-17.796-3.6922-19.72 11.413-32.917 13.196-7.8146-13.134-31.501-10.615-32.51 7.932-2.6753 2.6439-7.3609 2.8864-9.7858 5.8198-10.787-12.023-22.818-1.3767-28.544 8.2526 2.2215 9.4339 0.1408 12.25-6.6804 16.701-5.241-1.8539-9.0583-2.1825-14.51-1.2125-13.548 11.17-2.996 24.789-9.6372 36.374-6.8994-0.4068-12.14 1.0951-16.263 3.9503-2.2528 8.4951-3.481 23.287 4.3962 26.925 1.8226 13.009-12.195 11.249-14.816 18.656-5.4288 15.363 11.014 18.836 13.22 32.956-13.322 7.4861-10.365 31.563 7.9163 32.502 9.6841 8.2605 0.6493 12.696 0.4615 26.573 7.0089 3.6922 12.938 16.38 23.068 9.8875 3.0194 2.3233 5.4365 5.1941 7.2513 8.5499-1.8695 5.2254-2.1668 9.0427-1.2203 14.518 9.5355 12.563 26.878 2.4875 36.366 9.6293 0.5241 6.5083 1.5566 12.594 5.2957 16.357 15.903 8.0023 20.839-6.9072 32.174-3.9503 5.9528 1.5097 5.4444 11.914 12.101 14.268 7.7989 2.7457 9.6998-3.4575 20.182-3.6452"/>
    <path d="m1924.4 2541.6c0.9309-6.1563-19.666-7.8615-19.759-1.6349 3.9269 2.4406 15.512 3.4106 19.759 1.6349"/>
    <path d="m1936.5 2490.9c2.3702 2.7065 12.946 2.8239 15.801 1.322 0.1565-1.7914 0.3051-3.5201 0.4381-5.2958-4.2632-1.7444-4.5135 0.078-9.1209-2.0729-2.8317 1.4862-3.7783 5.2018-7.1184 6.0467"/>
    <path d="m1799 2468.9c31.118 9.1288 73.765-0.7118 47.545-29.232-12.743-1.056-25.462-2.112-38.228-3.168-1.9634 12.14-6.4143 21.371-9.3165 32.4"/>
    <path d="m1993 2482.3c4.5996-2.6127 6.2892-23.037 2.1903-26.362-0.7197 8.7923-1.4707 17.585-2.1903 26.362"/>
    <path d="m2004.4 2456.7c-2.5032 7.8772-5.0768 21.864-3.4888 26.228 5.194-3.3167 4.4979-20.291 3.4888-26.228"/>
    <path d="m1544.8 2429.2c2.026-3.6766 2.4797-9.207 1.0794-13.165-17.866-13.392-21.308 23.342-1.0794 13.165"/>
    <path d="m1594.8 2418.8c-34.082-3.1212 2.7613 31.649 3.3089 8.237 0.1095-4.1146-1.3064-3.88-3.3089-8.237"/>
    <path d="m2029.7 2391.1c-13.384-56.204 70.816-60.749 72.709-12.555 1.103 28.38-18.852 43.962-45.558 37.36-15.692-3.8799-24.946-15.551-27.152-24.805zm44.408 72.694c7.3687-2.5266 6.0701 4.099 12.852 5.0455 8.0336-0.6649 10.803-7.5252 14.385-13.408 5.3114-0.01 7.1262 2.949 13.079 2.4015 7.7755-4.318 3.2463-23.186 19.994-16.928 2.6205-4.2006 7.4312-12.664 2.73-17.045 1.1812-6.3049 8.4951-5.3818 12.625-8.2135 1.4863-7.8381 0.8918-13.854-2.5501-17.468-0.2503-7.0792 7.3765-4.8107 8.7846-9.9109 0.6414-8.3074-3.4732-12.586-7.9163-16.56 9.4338-12.148 1.8383-21.926-8.37-27.245 0.1408-4.1928 3.8721-4.0911 3.4106-9.0035-1.4706-13.932-23.123-3.2385-18.015-22.716-9.2148-8.5342-23.882 1.7288-23.96-15.246-9.5433-2.5814-13.806 1.056-20.104 2.3076-5.4053-0.3364-3.4732-6.8603-7.2514-8.5577-10.678-2.4876-13.15 4.7012-19.228 7.7207-4.842-0.4146-5.6321-4.2476-8.7845-6.0624-9.5981 0.266-11.577 9.4886-17.115 14.495-4.2007-0.1017-4.1068-3.8721-9.0036-3.3949-11.311 2.6987-7.2357 24.116-22.732 18.031-2.6049 3.9894-7.4235 11.382-2.6361 15.7-1.189 6.3205-7.8146 6.1875-12.649 8.2448-2.5501 9.5433 1.0795 13.806 2.3389 20.104-1.0325 4.5527-7.1105 3.1838-8.5577 7.2436-1.2046 8.7924 3.0273 12.985 7.9241 16.576-4.7873 8.1275-8.9957 22.748 6.0467 23.084 2.073 5.6869 1.8852 7.8928-1.0951 13.165 1.2985 14.558 24.195 3.2542 17.913 24.062 7.2435 5.906 13.588 2.2216 20.886 4.3806 1.7679 3.3558 1.6662 8.3621 4.3805 10.951 10.052 3.1759 12.446-2.6674 20.104-2.2997 3.3793 10.279 17.835 10.279 22.513 0.5475"/>
    <path d="m1559.4 2413.2c27.973 11.155 30.062-36.875 1.1812-30.437-13.11 2.9334-13.955 25.344-1.1812 30.437"/>
    <path d="m1551.3 2367.4c-4.7561-7.0949-15.614-4.8656-17.358 1.1968-3.3088 11.562 18.876 19.267 17.358-1.1968"/>
    <path d="m1600.5 2382.1c-0.078-1.5332 0.4928-2.3154 1.5411-2.5188 0.8604-8.0806-2.7692-12.375-10.889-12.844-0.1408 1.2438-1.6975 0.8839-2.7457 1.103-9.512 8.3465 2.292 22.286 12.093 14.26"/>
    <path d="m2054.6 2395.8c0.8683-7.971-12.766-7.5642-10.779 1.7601 3.4262 3.7391 9.1678 3.6765 10.779-1.7601"/>
    <path d="m2084.8 2399.6c0.8292-5.2019-1.9399-7.3374-7.3609-7.2357-0.7744 2.4327-3.1133 3.082-3.1837 6.3674 1.6897 4.4275 8.2057 5.7338 10.545 0.8683"/>
    <path d="m2063 2389.8c6.4456 2.3546 10.685-0.1017 12.305-4.2788 10.607-27.41-40.364-5.9451-12.305 4.2788"/>
    <path d="m2057.1 2365.5c1.2594-3.5279-2.3859-2.8708-2.1825-5.5148-5.9215-1.1734-8.7845 1.2359-8.5811 7.267 2.8629 2.9647 10.028 2.1903 10.764-1.7522"/>
    <path d="m2085.7 2371.8c1.6896-3.6375 1.8226-5.374 0.7744-9.2383-4.975-1.0326-8.2917-0.1173-9.559 3.1915-0.3676 4.7873 3.3871 6.1015 8.7846 6.0468"/>
    <path d="m2004.4 2456.7c-0.01 0.031-0.039 0.063-0.039 0.086 0.031 0.031 0.039 0.031 0.055 0.031 0-0.031 0-0.094-0.016-0.1173zm-231.21-28.434c-0.9152 10.975-1.8148 21.958-2.73 32.932 21.3 11.687-9.3165 35.177-13.189 14.87-1.6739-8.8628 4.3024-9.8328 9.1053-13.877 0.9544-11.405 1.9165-22.849 2.8708-34.262-2.6361-2.6987-9.598-1.6974-14.417-2.5031 12.007 13.423 0.1017 32.22-8.5343 55.023-7.7676 20.456-11.256 38.674-23.804 47.099-13.83-0.532-25.744-2.6909-38.126-4.4431-1.3767 2.2215-3.2698 3.8095-5.7104 4.8185 0.266 5.2176-0.2581 9.5121-1.3298 13.165l9.4808 0.7588c27.394 3.3949 38.956-1.979 60.514 6.344 4.1224 2.2607 5.3974 6.8993 4.1849 13.627 2.7301 3.3793 13.564-7.8537 17.014-13.181-3.1446-2.2372-4.1303-6.3127-5.8199-9.7624 6.8915-21.785 14.432-42.781 20.072-66.029 29.373 0.07 69.095 14.151 76.417-9.598 11.632-37.665-50.384-33.48-86-34.982zm301.8 169.63c-25.165 4.1615-64.417-10.044-90.951-7.533-0.6962 8.3465-1.3924 16.701-2.0651 25.047 1.7522 2.4953 7.0088-1.9165 6.2422 4.4978-2.2372 27.23-4.5057 54.475-6.7663 81.728 0.3129 3.7078-7.0793-1.6349-6.8055 2.0885 0.6884 26.362-7.2592 42.538-16.67 56.994-3.9346-0.3207-7.8849-0.6414-11.843-0.97 7.6503-17.014 17.882-30.961 16.756-58.332-2.4328-0.7822-8.0805 1.1421-6.3518-3.168 2.2529-27.261 4.4901-54.499 6.7586-81.728-0.2816-4.2162 6.1327-0.5006 6.915-3.4184-0.039-7.7285 2.9725-18.046 0.6571-23.843-62.415-5.1472-124.8-10.302-187.17-15.481-5.2879-3.301-5.1549-11.155-10.787-14.166-6.0623 4.889-13.173 8.5655-17.225 15.832 4.8186 11.108 21.824 18.164 20.002 30.836-17.475 0.7666-17.858-26.8-36.358-25.556 0.031-6.3283 3.5279-8.4482-1.7757-10.771-13.603-1.1108-27.23-2.2529-40.849-3.3793-21.746 9.3321-20.761 51.08-51.495 44.854-20.315-4.1381-18.054-26.182-16.936-51.839-62.344 25.853-156.67 1.4002-187.41-44.697 4.7638-1.1655 5.4365-7.1105 9.9814-8.4794 27.073 29.592 67.867 50.204 115.25 50.697 95.543 0.9387 173.09-85.96 154.99-188.9 46.121 3.8252 92.265 7.6425 138.4 11.452 14.933 11.859 21.332 37.493 53.177 30.953 0.7197-8.7845 1.4393-17.569 2.1824-26.377 18.007 1.5019 36.022 2.9803 54.045 4.4744 3.0742 32.541 17.984 55.038 40.559 71.043 22.99 13.658 41.091 16.662 41.091 16.662 13.861 4.3649 30.343 0.4615 42.601-1.7757-2.1043 25.493-4.2085 50.971-6.3049 76.448 16.012 14.62 9.1444 43.328-11.843 46.809"/>
    <path d="m1635.1 2663.9c39.761 9.6763 43.54-55.14 9.2461-56.173-27.308-0.837-39.847 48.726-9.2461 56.173"/>
    <path d="m1580.6 2617.2s96.732 29.076 125.59 30.93c28.872 1.8383 15.582 6.9854 5.9529 6.3518-5.7104-0.3598-36.014-3.8486-64.504-10.756-19.486-4.7403-37.782-10.889-46.043-13.588-20.338-6.6099-41.553-16.419-20.995-12.938"/>
   </g>
   <g fill-rule="evenodd">
    <path d="m3349.1 2425.7s-468.05 191.44-868.24-80.41c132.05-24.75 211.68-62.52 211.68-62.52s198.48 213.07 656.56 142.93" fill="url(#radialGradient991)"/>
    <path d="m3368.5 2362.7s-175.63 106.78-585.96-89.21c132.05-24.77 211.7-62.58 211.7-62.58s203.98 136.23 374.26 151.79" fill="url(#radialGradient999)"/>
    <path d="m3629 2269.7s-161.97 122.02-490.25-68.75c109.32-20.51 204.65-25.71 204.65-25.71s144.63 81.58 285.6 94.46" fill="url(#radialGradient1007)"/>
    <path d="m2357.3 2501.9c13.085-20.43 20.771-44.54 20.771-70.48 0-30.99-10.878-59.41-28.996-81.96 18.392-1.33 28.996-2.33 28.996-2.33s365.4 348.1 1009.8 114.51c-60.29 92.28-569.22 218.22-1030.6 40.26" fill="url(#radialGradient1015)"/>
   </g>
   <g clip-path="url(#clipPath1025)">
    <path d="m3812.6 2241.7c-326.96-55.79-562.93-159.51-976.9-23.97-135.95 44.51-278.18 69.43-419.97 89.38-120.12 16.91-243.65 16.91-364.64 14.1-251.36-5.76-821.7-135.3-821.7-135.3 370.42-36.52 1177-62.83 1397-79.59 198.75-15.15 437.69-20.86 637.42-24.38 243.45-4.28 494.28 125.44 548.77 159.76" fill="url(#radialGradient1031)"/>
   </g>
   <g fill="#4a2819">
    <path d="m3124.5 2890.5v16.33h210.22v-16.33h-210.22"/>
    <path d="m3159.5 2490.2h-16.35v410.28h16.35v-410.28"/>
    <path d="m3316 2490.2h-16.37v410.28h16.37v-410.28"/>
    <path d="m3174.5 2897.3h-12.87v127.88h12.87v-127.88"/>
    <path d="m3313 2772.7 0.88-19.12-168.64 121.9 7.54 10.44 160.22-113.22"/>
    <path d="m3146.2 2772.7-0.88-19.12 168.66 121.9-7.52 10.44-160.26-113.22"/>
    <path d="m3146.2 2582.1-0.88-19.13 168.66 121.92-7.52 10.43-160.26-113.22"/>
    <path d="m3311 2635.8 0.86-19.1-168.66 121.9 7.54 10.42 160.26-113.22"/>
    <path d="m3297.5 2897.3h-12.87v127.88h12.87v-127.88"/>
    <path d="m3298.6 2927.8c0-27.39-30.91-34.91-69.02-34.91h-1.21c-38.11 0-67.77 7.52-67.77 34.91v72.54c0 27.39 30.89 49.58 68.98 49.58 38.11 0 69.02-22.19 69.02-49.58v-72.54"/>
    <path d="m3699.5 2908-170.47-271.25v-263.51l-294.53 62v205.39l170.53 127.87 294.47 139.5"/>
    <path d="m3699.5 2908 251.99-267.37h-29.64l0.72-307.51-14.67 6.21-5.37 301.3-228.81 255.14 25.78 12.23"/>
    <path d="m3742.9 2694.4-64.71 6.5v75.7l64.71-7.35v-74.85"/>
    <path d="m3814.2 2368.4-174.53-6.43v256.27l174.53-19.03v-230.81"/>
   </g>
   <text transform="scale(1,-1)" x="1242.5454" y="-1760.8137" fill="#000000" font-family="sans-serif" font-size="409.85px" letter-spacing="0px" stroke-width="7.5" word-spacing="0px" style="line-height:1.25" xml:space="preserve"><tspan x="1242.5454" y="-1760.8137" stroke-width="7.5">Capital Farm</tspan></text>
   <text transform="scale(1,-1)" x="1808.7971" y="-1483.3435" fill="#ffffff" font-family="sans-serif" font-size="212.01px" letter-spacing="0px" stroke-width="7.5" word-spacing="0px" style="line-height:1.25" xml:space="preserve"><tspan x="1808.7971" y="-1483.3435" fill="#ffffff" stroke-width="7.5">Food Products</tspan></text>
  </g>
 </g>
</svg>
